<?xml version="1.0" encoding="utf-8"?>
<!-- Generator: Adobe Illustrator 23.0.1, SVG Export Plug-In . SVG Version: 6.00 Build 0)  -->
<svg version="1.1" id="Calque_1" xmlns="http://www.w3.org/2000/svg" xmlns:xlink="http://www.w3.org/1999/xlink" x="0px" y="0px"
	 viewBox="0 0 256 256" style="enable-background:new 0 0 256 256;" xml:space="preserve">
<style type="text/css">
	.st0{fill:#29498E;}
	.st1{fill:#FFFFFF;}
	.st2{opacity:0.8;}
	.st3{fill:#010000;}
	.st4{fill:#D8927A;}
	.st5{fill:#F3BC96;}
	.st6{fill:#4A230E;}
	.st7{fill:#030000;}
	.st8{fill:#1D1719;}
</style>
<path class="st0" d="M249.3,256H6.7C3,256,0,253,0,249.3V6.7C0,3,3,0,6.7,0h242.5c3.7,0,6.7,3,6.7,6.7v242.5
	C256,253,253,256,249.3,256"/>
<path class="st1" d="M207.2,117.4c0,43.7-35.4,79.2-79.2,79.2s-79.2-35.4-79.2-79.2c0-43.7,35.4-79.2,79.2-79.2
	S207.2,73.7,207.2,117.4"/>
<g>
	<path class="st1" d="M26,217.1c1.4-1.1,3-1.6,4.9-1.6c1.1,0,2.1,0.2,3.1,0.6c1,0.4,1.8,1,2.6,1.7c0.7,0.7,1.3,1.6,1.8,2.6
		c0.4,1,0.7,2.1,0.7,3.2v7.7c0,0.5-0.2,0.8-0.5,1.2c-0.3,0.3-0.7,0.5-1.1,0.5c-0.5,0-0.8-0.2-1.2-0.5c-0.3-0.3-0.5-0.7-0.5-1.2v-7.7
		c0-0.7-0.1-1.3-0.4-1.9c-0.3-0.6-0.6-1.1-1.1-1.6c-0.4-0.4-1-0.8-1.6-1.1c-0.6-0.3-1.2-0.4-1.9-0.4c-0.7,0-1.3,0.1-1.9,0.4
		c-0.6,0.3-1.1,0.6-1.6,1.1c-0.4,0.4-0.8,1-1.1,1.6c-0.3,0.6-0.4,1.2-0.4,1.9v7.7c0,0.5-0.2,0.8-0.5,1.2c-0.3,0.3-0.7,0.5-1.1,0.5
		c-0.5,0-0.8-0.2-1.2-0.5c-0.3-0.3-0.5-0.7-0.5-1.2v-14.2c0-0.4,0.2-0.8,0.5-1.2c0.3-0.3,0.7-0.5,1.2-0.5c0.4,0,0.8,0.2,1.1,0.5
		S26,216.6,26,217.1"/>
	<path class="st1" d="M45.9,212.3c0,0.5-0.2,1-0.6,1.4c-0.4,0.4-0.8,0.6-1.4,0.6c-0.5,0-1-0.2-1.4-0.6c-0.4-0.4-0.6-0.8-0.6-1.4
		c0-0.5,0.2-1,0.6-1.4c0.4-0.4,0.8-0.6,1.4-0.6c0.5,0,1,0.2,1.4,0.6C45.7,211.4,45.9,211.8,45.9,212.3 M42.4,231.3v-14.2
		c0-0.5,0.2-0.8,0.5-1.2c0.3-0.3,0.7-0.5,1.1-0.5c0.4,0,0.8,0.2,1.1,0.5c0.3,0.3,0.5,0.7,0.5,1.2v14.2c0,0.5-0.2,0.8-0.5,1.2
		c-0.3,0.3-0.7,0.5-1.1,0.5c-0.4,0-0.8-0.2-1.1-0.5C42.5,232.1,42.4,231.8,42.4,231.3"/>
	<path class="st1" d="M73.6,231.3c0,0.5-0.2,0.8-0.5,1.2c-0.3,0.3-0.7,0.5-1.1,0.5c-0.5,0-0.8-0.2-1.2-0.5c-0.3-0.3-0.5-0.7-0.5-1.2
		v-8.9c0-0.5-0.1-1-0.3-1.4c-0.2-0.4-0.5-0.8-0.8-1.2c-0.3-0.3-0.7-0.6-1.2-0.8c-0.5-0.2-0.9-0.3-1.5-0.3c-0.5,0-1,0.1-1.4,0.3
		c-0.4,0.2-0.8,0.5-1.2,0.8c-0.3,0.3-0.6,0.7-0.8,1.2c-0.2,0.4-0.3,0.9-0.3,1.4v8.9c0,0.5-0.2,0.8-0.5,1.2c-0.3,0.3-0.7,0.5-1.1,0.5
		c-0.5,0-0.8-0.2-1.2-0.5c-0.3-0.3-0.5-0.7-0.5-1.2v-8.9c0-0.5-0.1-1-0.3-1.4c-0.2-0.4-0.5-0.8-0.8-1.2c-0.3-0.3-0.7-0.6-1.2-0.8
		c-0.4-0.2-0.9-0.3-1.4-0.3c-0.5,0-1,0.1-1.4,0.3c-0.4,0.2-0.8,0.5-1.2,0.8c-0.3,0.3-0.6,0.7-0.8,1.2c-0.2,0.4-0.3,0.9-0.3,1.4v8.9
		c0,0.5-0.2,0.8-0.5,1.2c-0.3,0.3-0.7,0.5-1.1,0.5c-0.5,0-0.8-0.2-1.2-0.5c-0.3-0.3-0.5-0.7-0.5-1.2v-14.2c0-0.4,0.2-0.8,0.5-1.1
		c0.3-0.3,0.7-0.5,1.1-0.5c0.4,0,0.7,0.1,1,0.3c0.3,0.2,0.5,0.5,0.6,0.8c1.1-0.7,2.4-1.1,3.8-1.1c1,0,2,0.2,2.9,0.6
		c0.9,0.4,1.7,1,2.4,1.9c1.4-1.7,3.2-2.5,5.3-2.5c0.9,0,1.8,0.2,2.7,0.6c0.8,0.4,1.6,0.9,2.2,1.5c0.6,0.6,1.1,1.4,1.5,2.2
		c0.4,0.8,0.6,1.7,0.6,2.7V231.3z"/>
	<path class="st1" d="M79.7,217.4c1.6-1.3,3.4-1.9,5.5-1.9c2.4,0,4.5,0.9,6.2,2.6c0.9,0.8,1.5,1.8,1.9,2.8c0.4,1,0.6,2.2,0.6,3.4
		c0,2.4-0.9,4.5-2.6,6.2c-1.7,1.7-3.8,2.6-6.2,2.6c-2.4,0-4.5-0.9-6.2-2.6c-1.7-1.7-2.6-3.8-2.6-6.2v-14.6c0-0.5,0.2-0.9,0.5-1.2
		c0.3-0.3,0.7-0.5,1.2-0.5c0.5,0,0.8,0.2,1.2,0.5c0.3,0.3,0.5,0.7,0.5,1.2V217.4z M85.2,229.7c0.8,0,1.5-0.1,2.1-0.4
		c0.7-0.3,1.2-0.7,1.7-1.2c0.5-0.5,0.9-1.1,1.2-1.7c0.3-0.7,0.4-1.4,0.4-2.1c0-0.7-0.1-1.5-0.4-2.1c-0.3-0.7-0.7-1.2-1.2-1.7
		c-0.5-0.5-1.1-0.9-1.7-1.2c-0.7-0.3-1.4-0.4-2.1-0.4c-0.8,0-1.5,0.1-2.2,0.4c-0.7,0.3-1.2,0.7-1.7,1.2c-0.5,0.5-0.9,1.1-1.2,1.7
		c-0.3,0.7-0.4,1.4-0.4,2.1c0,0.7,0.1,1.5,0.4,2.1c0.3,0.7,0.7,1.2,1.2,1.7c0.5,0.5,1.1,0.9,1.7,1.2
		C83.7,229.5,84.4,229.7,85.2,229.7"/>
	<path class="st1" d="M96.2,231.3v-21.7c0-0.5,0.2-0.8,0.5-1.2c0.3-0.3,0.7-0.5,1.2-0.5c0.5,0,0.9,0.2,1.2,0.5
		c0.3,0.3,0.5,0.7,0.5,1.2v20.1h0.7c0.4,0,0.8,0.2,1.1,0.5c0.3,0.3,0.5,0.7,0.5,1.2c0,0.4-0.2,0.8-0.5,1.1c-0.3,0.3-0.7,0.5-1.1,0.5
		h-2.4c-0.4,0-0.8-0.2-1.1-0.5C96.4,232.1,96.2,231.8,96.2,231.3"/>
	<path class="st1" d="M117.2,228c0.5,0,0.9,0.2,1.2,0.5c0.3,0.3,0.5,0.7,0.5,1.2c0,0.5-0.2,0.8-0.5,1.2c-1.6,1.4-3.5,2.1-5.7,2.1
		c-2.4,0-4.5-0.9-6.2-2.6c-1.7-1.7-2.6-3.8-2.6-6.2c0-2.4,0.9-4.5,2.6-6.2c1.7-1.7,3.8-2.6,6.2-2.6c2.4,0,4.5,0.9,6.2,2.6
		c0.9,0.8,1.5,1.8,1.9,2.8c0.4,1,0.6,2.2,0.6,3.4c0,0.5-0.2,0.9-0.5,1.2c-0.3,0.3-0.7,0.5-1.2,0.5h-12.4c0.2,0.6,0.4,1.1,0.8,1.6
		c0.3,0.5,0.7,0.9,1.2,1.2c0.5,0.3,1,0.6,1.5,0.8c0.6,0.2,1.1,0.3,1.7,0.3c0.7,0,1.3-0.1,1.9-0.3c0.6-0.2,1.1-0.5,1.6-0.9
		C116.4,228.2,116.8,228,117.2,228 M117.9,222.6c-0.2-0.6-0.4-1.1-0.8-1.6c-0.3-0.5-0.8-0.9-1.2-1.2c-0.5-0.3-1-0.6-1.5-0.8
		c-0.6-0.2-1.1-0.3-1.7-0.3c-0.6,0-1.2,0.1-1.7,0.3c-0.6,0.2-1.1,0.5-1.5,0.8c-0.5,0.3-0.9,0.7-1.2,1.2c-0.3,0.5-0.6,1-0.8,1.6
		H117.9z"/>
	<g class="st2">
		<g>
			<path class="st1" d="M129.3,218.1C129.3,218.1,129.3,218.1,129.3,218.1c1.8-1.8,3.8-2.6,6.2-2.6c2.4,0,4.5,0.9,6.2,2.6
				c1.7,1.7,2.6,3.8,2.6,6.2c0,2.4-0.9,4.5-2.6,6.2c-1.7,1.7-3.8,2.6-6.2,2.6c-2.4,0-4.5-0.9-6.2-2.6c-1.7-1.7-2.6-3.8-2.6-6.2v-15
				c0-0.3,0.1-0.6,0.4-0.9c0.2-0.2,0.5-0.4,0.9-0.4c0.3,0,0.6,0.1,0.9,0.4c0.2,0.2,0.4,0.5,0.4,0.9V218.1z M135.5,230.4
				c1.7,0,3.2-0.6,4.4-1.8c1.2-1.2,1.8-2.7,1.8-4.4s-0.6-3.2-1.8-4.4c-1.2-1.2-2.7-1.8-4.4-1.8c-1.7,0-3.2,0.6-4.4,1.8
				c-1.2,1.2-1.8,2.7-1.8,4.4s0.6,3.2,1.8,4.4C132.3,229.8,133.8,230.4,135.5,230.4"/>
			<path class="st1" d="M163,231.7c0,0.3-0.1,0.6-0.4,0.9c-0.2,0.2-0.5,0.4-0.9,0.4c-0.3,0-0.6-0.1-0.9-0.4
				c-0.2-0.2-0.4-0.5-0.4-0.9v-1c-1.6,1.5-3.4,2.3-5.6,2.3c-2.2,0-4.1-0.8-5.7-2.4c-1.6-1.6-2.4-3.5-2.4-5.7v-8.1
				c0-0.3,0.1-0.6,0.4-0.9c0.2-0.2,0.5-0.4,0.9-0.4c0.3,0,0.6,0.1,0.9,0.4c0.2,0.2,0.4,0.5,0.4,0.9v8.1c0,1.5,0.5,2.9,1.6,4
				c1.1,1.1,2.4,1.6,4,1.6c1.5,0,2.9-0.5,4-1.6c1.1-1.1,1.6-2.4,1.6-4v-8.1c0-0.3,0.1-0.6,0.4-0.9c0.2-0.2,0.5-0.4,0.9-0.4
				c0.3,0,0.6,0.1,0.9,0.4c0.2,0.2,0.4,0.5,0.4,0.9V231.7z"/>
			<path class="st1" d="M169.5,211.7c0,0.4-0.2,0.8-0.5,1.1c-0.3,0.3-0.7,0.5-1.1,0.5c-0.4,0-0.8-0.2-1.1-0.5
				c-0.3-0.3-0.5-0.7-0.5-1.1c0-0.4,0.2-0.8,0.5-1.1c0.3-0.3,0.7-0.5,1.1-0.5c0.4,0,0.8,0.2,1.1,0.5
				C169.4,210.9,169.5,211.3,169.5,211.7 M166.7,216.7c0-0.3,0.1-0.6,0.4-0.9c0.2-0.2,0.5-0.4,0.9-0.4c0.3,0,0.6,0.1,0.9,0.4
				c0.2,0.2,0.4,0.5,0.4,0.9v15c0,0.3-0.1,0.6-0.4,0.9c-0.2,0.2-0.5,0.4-0.9,0.4c-0.3,0-0.6-0.1-0.9-0.4c-0.2-0.2-0.4-0.5-0.4-0.9
				V216.7z"/>
			<path class="st1" d="M172.9,209.2c0-0.3,0.1-0.6,0.4-0.9c0.2-0.2,0.5-0.4,0.9-0.4c0.3,0,0.6,0.1,0.9,0.4c0.2,0.2,0.4,0.5,0.4,0.9
				v21.2h1.2c0.3,0,0.6,0.1,0.9,0.4c0.2,0.2,0.4,0.5,0.4,0.9c0,0.3-0.1,0.6-0.4,0.9c-0.2,0.2-0.5,0.4-0.9,0.4h-2.5
				c-0.3,0-0.6-0.1-0.9-0.4c-0.2-0.2-0.4-0.5-0.4-0.9V209.2z"/>
			<path class="st1" d="M195.4,209.2c0-0.3,0.1-0.6,0.4-0.9c0.2-0.2,0.5-0.4,0.9-0.4c0.3,0,0.6,0.1,0.9,0.4c0.2,0.2,0.4,0.5,0.4,0.9
				v15c0,2.4-0.9,4.5-2.6,6.2c-1.7,1.7-3.8,2.6-6.2,2.6c-2.4,0-4.5-0.9-6.2-2.6c-1.7-1.7-2.6-3.8-2.6-6.2c0-2.4,0.9-4.5,2.6-6.2
				c1.7-1.7,3.8-2.6,6.2-2.6c2.4,0,4.5,0.9,6.2,2.6c0,0,0,0,0.1,0.1V209.2z M195.4,224.2c0-1.7-0.6-3.2-1.8-4.4
				c-1.2-1.2-2.7-1.8-4.4-1.8c-1.7,0-3.2,0.6-4.4,1.8c-1.2,1.2-1.8,2.7-1.8,4.4c0,1.7,0.6,3.2,1.8,4.4c1.2,1.2,2.7,1.8,4.4,1.8
				c1.7,0,3.2-0.6,4.4-1.8C194.8,227.4,195.4,225.9,195.4,224.2"/>
			<path class="st1" d="M213.9,228.7c0.3,0,0.6,0.1,0.9,0.4c0.2,0.2,0.4,0.5,0.4,0.9c0,0.3-0.1,0.6-0.4,0.9
				c-1.6,1.4-3.5,2.1-5.7,2.1c-2.4,0-4.5-0.9-6.2-2.6c-1.7-1.7-2.6-3.8-2.6-6.2c0-2.4,0.9-4.5,2.6-6.2c1.7-1.7,3.8-2.6,6.2-2.6
				c2.4,0,4.5,0.9,6.2,2.6c1.7,1.7,2.6,3.8,2.6,6.2c0,0.3-0.1,0.6-0.4,0.9c-0.2,0.2-0.5,0.4-0.9,0.4H203c0.2,1.2,0.8,2.2,1.7,3.2
				c1.2,1.2,2.7,1.8,4.4,1.8c1.6,0,2.9-0.5,4-1.5C213.3,228.8,213.6,228.7,213.9,228.7 M215.2,223c-0.2-1.2-0.8-2.2-1.7-3.2
				c-1.2-1.2-2.7-1.8-4.4-1.8c-1.7,0-3.2,0.6-4.4,1.8c-0.9,0.9-1.5,2-1.7,3.2H215.2z"/>
			<path class="st1" d="M220.3,216.7c0-0.3,0.1-0.6,0.4-0.9c0.2-0.2,0.5-0.4,0.9-0.4c0.3,0,0.6,0.1,0.9,0.4c0.2,0.2,0.4,0.5,0.4,0.9
				v1.4c1.7-1.7,3.8-2.6,6.2-2.6c1.2,0,2.3,0.2,3.3,0.6c0.2,0.1,0.4,0.2,0.5,0.3c0.2,0.2,0.4,0.5,0.4,0.9c0,0.3-0.1,0.6-0.4,0.9
				c-0.2,0.2-0.5,0.4-0.9,0.4c-0.2,0-0.4,0-0.5-0.1c-0.7-0.3-1.5-0.5-2.4-0.5c-1.7,0-3.2,0.6-4.4,1.8c-1.2,1.2-1.8,2.7-1.8,4.4v7.5
				c0,0.3-0.1,0.6-0.4,0.9c-0.2,0.2-0.5,0.4-0.9,0.4c-0.3,0-0.6-0.1-0.9-0.4c-0.2-0.2-0.4-0.5-0.4-0.9V216.7z"/>
		</g>
	</g>
</g>
<path class="st3" d="M157.3,170c-0.1-4.5,1-15.4-6.1-15.1c-3.7,0.2-7.6,3.4-10.7,5.1c-3.3,1.8-6.5,3.6-9.8,5.5
	c-0.2-0.2-0.4-0.4-0.6-0.5c-1-0.7-2.6-1.2-4.9,0.4c0,0-0.1,0.1-0.1,0.1l-9.7-5.4c-3.1-1.7-7-4.9-10.7-5.1
	c-7.1-0.4-5.9,10.5-6.1,15.1c-0.2,5.6,0.1,13.8,7.5,13.5c3.3-0.1,6.7-2.3,9.6-3.8c3.1-1.5,6.1-3.1,9.1-4.7c0.8,1,1.8,1.5,3,1.5
	c0.1,0,0.3,0,0.5,0c1.1-0.1,2-0.6,2.7-1.5c3,1.6,6,3.1,9.1,4.6c2.9,1.4,6.2,3.6,9.6,3.8C157.2,183.8,157.4,175.6,157.3,170z"/>
<g>
	<path class="st4" d="M81.3,126.1c-4,1-9.5-3.2-11.1-9.3c-1.6-6.2,0.3-12,4.3-13.1"/>
	<path class="st4" d="M174.6,126.1c4,1,9.5-3.2,11.1-9.3c1.6-6.2-0.3-12-4.3-13.1"/>
	<path class="st5" d="M128,156.2c-7.4,0.1-13.1-1-14.9-1.2c-22-2.6-30.4-24.4-36.8-41.1c-0.8-2.1-1.4-4.8-1.8-6.8
		c-0.7-3.5-0.2-7-0.2-8.9c0-27.9,19-43.6,53.6-45.9h0c34.6,2.3,53.6,18,53.6,45.9c0,1.9,0.5,5.4-0.2,8.9c-0.4,2-0.9,4.6-1.8,6.8
		c-6.4,16.7-14.8,38.5-36.8,41.1C141.1,155.2,135.4,156.3,128,156.2L128,156.2"/>
	<path class="st6" d="M175.2,120.2c0,0-1.5-18.7-1.5-24.4c0-7.8,2-20.3,2-20.3l8.3,15.8C183.9,91.3,181.8,117.8,175.2,120.2"/>
	<path class="st3" d="M149,105.3c-8.7,0-15.8-7.1-15.8-15.8c0-8.7,7.1-15.8,15.8-15.8c8.7,0,15.8,7.1,15.8,15.8
		C164.9,98.2,157.8,105.3,149,105.3 M149,75.6c-7.6,0-13.8,6.2-13.8,13.8c0,7.6,6.2,13.8,13.8,13.8c7.6,0,13.8-6.2,13.8-13.8
		C162.9,81.8,156.7,75.6,149,75.6"/>
	<path class="st7" d="M164.3,90.4c6.2,2.1,4.3,9.6,6.4,14.3c1.6,3.8,4.7,6.9,8.5,8.4c0.9,0.4,1.3-1.1,0.4-1.4
		c-3.7-1.5-6.8-4.9-8-8.8c-0.7-2.3-0.5-4.7-1.1-7c-0.9-3.3-2.5-5.9-5.8-7C163.8,88.7,163.4,90.1,164.3,90.4"/>
	<path class="st8" d="M129.8,105.7c-0.8,1.3-2.8,1.3-3.8,0.2c-1.1-1.2-2.9,0.6-1.8,1.8c2.1,2.4,6.1,1.9,7.8-0.7
		C132.8,105.6,130.6,104.3,129.8,105.7"/>
	<path class="st6" d="M94.5,60.7c0,0,33.5,6.8,49.1,7.4c18.7,0.7,26.6,0,26.6,0S136,44.8,94.5,60.7"/>
	<path class="st6" d="M156.5,114.2c-3.8-1.4-5.7,1.3-5.7,1.3c-0.1,0.2-0.1,0.4,0,0.6c0.1,0.2,0.3,0.2,0.5,0.2c0,0,1.3-0.3,2.5-0.1
		c1.5,0.3,2.2,1.4,2.2,3.1c0,1.4-0.4,2.4-1.1,2.7c-1.4,0.7-4.1-0.6-5-1.2c-0.4-0.3-10.3-7-15.1-7.9c-4.2-0.8-6.4,1.2-7,1.9
		c-0.6-0.7-2.8-2.7-7-1.9c-4.7,0.9-14.6,7.6-15.1,7.9c-0.9,0.6-3.5,2-5,1.2c-0.7-0.4-1.1-1.3-1.1-2.7c0-1.8,0.8-2.9,2.2-3.1
		c1.1-0.2,2.5,0.1,2.5,0.1c0.2,0,0.4,0,0.5-0.2c0.1-0.2,0.1-0.4,0-0.6c0,0-1.9-2.7-5.7-1.3c-2.9,1.1-4.9,5.7-4.3,9.9
		c0.3,2.3,2.1,7.8,10.8,8.4c0.6,0,1.2,0.1,1.8,0.1c5.6,0,9.5-1.9,12.4-3.4l0.9-0.5c3-1.5,6.5-3.7,7-4c0.5,0.3,4,2.5,7,4l0.9,0.5
		c2.9,1.5,6.8,3.4,12.4,3.4c0.6,0,1.2,0,1.8-0.1c8.7-0.6,10.4-6.1,10.8-8.4C161.4,120,159.4,115.3,156.5,114.2z"/>
	<path class="st3" d="M107,84.1c-5.4,0-8.5,7.8-8.5,7.8c4-4.3,6.1-5.8,8.6-5.8s4.7,1.5,8.6,5.8c0,0-3.1-7.7-8.5-7.8c0,0,0,0,0,0
		L107,84.1z"/>
	<path class="st3" d="M115.7,93.3c-0.4,0-0.8-0.2-1.1-0.5c-3.7-4-5.7-5.4-7.6-5.4c-1.9,0-3.8,1.4-7.5,5.4c-0.5,0.5-1.2,0.6-1.8,0.2
		c-0.6-0.4-0.8-1.1-0.6-1.8c0.1-0.4,3.6-8.6,9.9-8.7c0,0,0,0,0,0h0.1c0,0,0,0,0,0c6.3,0,9.7,8.3,9.9,8.7c0.3,0.6,0,1.4-0.6,1.8
		C116.2,93.3,116,93.3,115.7,93.3"/>
	<path class="st3" d="M148.8,84.1c-5.4,0-8.5,7.8-8.5,7.8c4-4.3,6.1-5.8,8.6-5.8c2.4,0,4.6,1.5,8.6,5.8c0,0-3.1-7.7-8.5-7.8
		c0,0,0,0,0,0L148.8,84.1z"/>
	<path class="st3" d="M140.2,93.3c-0.3,0-0.5-0.1-0.8-0.2c-0.6-0.4-0.8-1.1-0.6-1.8c0.1-0.4,3.6-8.6,9.9-8.7c0,0,0,0,0,0h0.1
		c0,0,0,0,0,0c6.3,0,9.7,8.3,9.9,8.7c0.3,0.6,0,1.4-0.6,1.8c-0.6,0.4-1.4,0.3-1.8-0.2c-3.7-4-5.7-5.4-7.6-5.4
		c-1.9,0-3.8,1.4-7.5,5.4C141,93.2,140.6,93.3,140.2,93.3"/>
	<path class="st6" d="M80.8,120.2c0,0,1.5-18.7,1.5-24.4c0-7.8-2-20.3-2-20.3l-8.3,15.8C72.1,91.3,74.2,117.8,80.8,120.2"/>
	<path class="st3" d="M198.4,76.9c-1.1-8.9-8.3-16.5-21.5-22.6c-4-18.3-9.4-40.8-45.4-42.3c-0.7,0-1.4-0.1-2.1-0.1h-2.8h0h-0.1
		c-0.7,0-1.4,0-2.1,0.1C88.5,13.6,83.1,36,79.1,54.3C65.9,60.4,58.7,68,57.6,76.9c-1.8,14.5,13.6,26.8,14.2,27.4
		c0.3,0.2,0.6,0.3,0.9,0.3c0.3,0,0.5-0.1,0.8-0.2c0.5-0.3,0.8-0.9,0.7-1.5c0-0.1-0.7-5.3-0.1-10c0.8-5.9,3.3-11.4,7.3-16.4
		c1.4-1.7,14.5-16.8,45.1-16.2h2.8h0h0.1c30.6-0.7,43.7,14.4,45.1,16.2c4.1,5,6.5,10.6,7.3,16.4c0.6,4.6-0.1,9.9-0.1,10
		c-0.1,0.6,0.2,1.2,0.7,1.5c0.5,0.3,1.2,0.3,1.7-0.1C184.9,103.7,200.2,91.4,198.4,76.9z"/>
</g>
</svg>
